<?xml version="1.0" standalone="no"?>
<!DOCTYPE svg PUBLIC "-//W3C//DTD SVG 20010904//EN"
 "http://www.w3.org/TR/2001/REC-SVG-20010904/DTD/svg10.dtd">
<svg version="1.0" xmlns="http://www.w3.org/2000/svg"
 width="750.000000pt" height="750.000000pt" viewBox="0 0 750.000000 750.000000"
 preserveAspectRatio="xMidYMid meet">

<g transform="translate(0.000000,750.000000) scale(0.100000,-0.100000)"
fill="#A07FF1" stroke="none">
<path d="M5368 5103 c-41 -25 -71 -87 -64 -128 8 -43 41 -68 69 -54 16 9 18
18 13 47 -6 43 14 72 51 72 24 0 73 -40 73 -60 0 -24 -36 -78 -103 -155 -77
-88 -97 -126 -97 -181 0 -42 40 -118 70 -134 50 -27 73 25 36 79 -41 58 -35
79 44 171 127 149 153 214 108 280 -47 69 -141 99 -200 63z"/>
<path d="M5039 5025 c-30 -16 -59 -79 -59 -126 0 -49 28 -96 86 -145 30 -26
63 -61 74 -79 29 -47 27 -117 -5 -172 -21 -34 -24 -47 -15 -63 36 -67 120 40
120 153 0 77 -21 119 -106 208 -41 43 -74 84 -74 93 0 66 56 92 102 46 15 -16
28 -35 28 -43 0 -8 7 -20 15 -27 20 -17 65 2 65 27 -1 37 -40 103 -72 123 -39
24 -120 26 -159 5z"/>
<path d="M4780 4894 c-32 -65 -18 -106 67 -196 54 -57 64 -74 59 -94 -3 -13
-9 -36 -12 -51 -9 -34 19 -58 48 -42 22 12 48 66 48 100 0 36 -30 87 -91 155
-33 35 -59 68 -59 72 0 4 7 18 16 30 24 35 11 72 -25 72 -25 0 -33 -7 -51 -46z"/>
<path d="M2009 4629 c-52 -19 -64 -91 -23 -133 49 -49 127 -21 140 50 5 30 2
40 -17 59 -29 29 -65 37 -100 24z"/>
<path d="M1260 4224 l0 -346 173 4 c162 3 175 5 228 29 107 51 171 139 188
263 17 121 -12 215 -93 298 -75 77 -148 98 -348 98 l-148 0 0 -346z m340 197
c19 -10 49 -37 65 -60 28 -40 30 -49 30 -130 0 -80 -3 -92 -30 -136 -38 -61
-82 -84 -174 -92 l-71 -6 0 228 0 228 73 -7 c39 -4 88 -15 107 -25z"/>
<path d="M2375 4403 c-16 -2 -47 -9 -67 -14 l-38 -10 0 -64 c0 -36 2 -65 3
-65 2 0 17 7 34 15 16 8 51 18 76 21 84 12 127 -13 127 -72 l0 -34 -62 0 c-88
0 -137 -16 -180 -60 -33 -33 -38 -44 -38 -85 0 -100 55 -155 154 -155 62 0 92
11 118 44 17 21 18 21 18 -11 l0 -33 70 0 70 0 0 194 c0 114 -4 206 -11 223
-14 38 -47 72 -87 89 -37 15 -140 25 -187 17z m135 -346 c0 -50 -24 -77 -69
-77 -44 0 -61 14 -61 51 0 37 33 59 87 59 42 0 43 -1 43 -33z"/>
<path d="M1970 4140 l0 -260 75 0 75 0 0 260 0 260 -75 0 -75 0 0 -260z"/>
<path d="M2790 4140 l0 -260 69 0 69 0 4 153 c2 119 7 159 20 183 20 37 65 58
113 52 l35 -4 0 68 0 68 -39 0 c-43 0 -83 -26 -112 -74 l-19 -31 0 53 0 52
-70 0 -70 0 0 -260z"/>
<path d="M3124 4383 c3 -10 48 -126 100 -258 89 -228 93 -241 79 -268 -18 -36
-69 -67 -110 -67 l-33 0 0 -55 c0 -53 0 -54 33 -60 78 -15 171 38 224 127 17
29 74 168 126 308 53 140 99 263 102 273 7 16 1 18 -70 15 l-78 -3 -50 -167
c-28 -93 -53 -168 -56 -168 -3 0 -30 77 -60 170 l-55 170 -78 0 c-71 0 -79 -2
-74 -17z"/>
<path d="M4937 4350 c-301 -55 -531 -180 -606 -332 -28 -56 -31 -70 -31 -162
0 -209 48 -431 131 -605 27 -57 49 -105 49 -106 0 -2 -44 -24 -97 -50 -242
-118 -294 -275 -137 -413 62 -56 228 -136 344 -166 233 -62 317 -70 680 -70
304 0 347 2 460 22 248 45 432 111 543 193 80 61 125 146 113 212 -15 80 -124
178 -266 237 -90 38 -95 42 -79 68 9 14 27 21 73 25 86 9 127 23 183 60 91 63
152 189 139 290 -8 55 -34 113 -63 139 -29 26 -88 48 -130 48 l-38 0 0 113 c0
99 -3 118 -25 162 -69 141 -282 266 -555 325 -148 33 -533 38 -688 10z m533
-71 c255 -29 461 -108 575 -223 79 -78 91 -119 80 -276 -6 -100 -5 -109 12
-119 12 -6 34 -6 57 -1 105 23 181 -62 156 -175 -16 -70 -44 -118 -87 -148
-52 -36 -86 -46 -178 -55 l-79 -7 -35 -60 c-83 -141 -221 -241 -396 -285 -166
-42 -477 -42 -645 -1 -194 49 -330 160 -420 343 -104 214 -164 588 -111 703
40 90 154 173 314 230 226 81 475 105 757 74z m628 -1250 c161 -75 225 -143
202 -214 -37 -114 -267 -212 -630 -271 -152 -25 -534 -30 -710 -10 -332 39
-571 117 -675 220 -24 24 -45 54 -47 67 -5 33 8 78 29 102 29 32 127 93 198
121 l66 26 62 -56 c74 -67 204 -135 313 -164 174 -45 500 -46 676 -1 149 38
302 120 365 195 33 40 35 40 151 -15z"/>
<path d="M5080 4179 c-292 -22 -540 -114 -595 -220 -42 -81 4 -163 127 -225
128 -65 260 -96 473 -114 434 -37 870 80 925 246 29 86 -57 177 -225 237 -109
39 -252 66 -402 77 -151 11 -150 11 -303 -1z m92 -157 l80 -39 77 39 c103 51
190 61 249 28 54 -31 71 -63 51 -98 -13 -24 -350 -250 -374 -251 -15 -1 -358
217 -372 236 -30 39 -9 86 52 122 39 23 148 6 237 -37z"/>
<path d="M6143 3558 c-30 -15 -67 -131 -52 -161 9 -16 18 -19 57 -14 62 7 102
49 102 107 0 66 -48 97 -107 68z"/>
<path d="M750 3215 l0 -345 80 0 80 0 0 130 0 130 115 0 115 0 0 60 0 60 -115
0 -115 0 0 95 0 95 130 0 130 0 0 60 0 60 -210 0 -210 0 0 -345z"/>
<path d="M2307 3228 c-15 -183 -28 -339 -27 -345 0 -9 22 -13 75 -13 71 0 75
1 75 23 0 12 4 69 9 127 6 58 13 156 16 218 l7 113 58 -168 c32 -92 68 -197
81 -233 l24 -65 50 0 49 0 85 233 c47 129 86 230 88 225 1 -4 9 -100 18 -213
22 -287 12 -260 101 -260 53 0 74 4 74 13 0 6 -16 160 -35 341 -19 180 -35
330 -35 333 0 2 -39 2 -87 1 l-87 -3 -44 -110 c-24 -60 -62 -166 -86 -233
l-42 -124 -13 44 c-7 23 -44 130 -83 236 l-71 192 -86 0 -86 0 -28 -332z"/>
<path d="M1433 3386 c-69 -17 -98 -38 -133 -93 -43 -68 -53 -107 -48 -192 7
-108 43 -167 133 -214 60 -32 173 -31 240 3 164 82 174 364 17 474 -50 35
-126 43 -209 22z m126 -120 c42 -33 57 -172 25 -239 -21 -44 -62 -63 -106 -51
-85 25 -107 220 -32 285 32 28 81 30 113 5z"/>
<path d="M1860 3130 l0 -260 75 0 75 0 0 153 c0 133 3 156 20 184 25 41 53 56
101 51 l39 -4 0 68 0 68 -30 0 c-43 0 -87 -25 -110 -63 l-20 -32 0 48 0 47
-75 0 -75 0 0 -260z"/>
<path d="M3312 3364 c-61 -30 -108 -94 -118 -161 -37 -249 128 -387 384 -321
l42 11 0 58 c0 33 -2 59 -4 59 -2 0 -20 -7 -41 -16 -48 -20 -135 -20 -174 0
-28 15 -61 51 -61 68 0 5 67 8 150 8 l149 0 7 36 c20 106 -25 219 -105 261
-63 33 -159 32 -229 -3z m187 -113 c4 -9 11 -31 14 -48 l7 -33 -95 0 c-103 0
-105 1 -80 55 15 30 37 47 75 58 22 6 69 -13 79 -32z"/>
</g>
</svg>
